<svg xmlns="http://www.w3.org/2000/svg" viewBox="0 0 1400 760" role="img" aria-label="Laboratorio de manipulacao">
  <rect width="1400" height="760" fill="#dff5ed"/>
  <rect x="0" y="470" width="1400" height="290" fill="#ffffff"/>
  <rect x="120" y="130" width="1160" height="430" rx="22" fill="#f7fffb" stroke="#cfe7dc" stroke-width="10"/>
  <rect x="160" y="180" width="520" height="330" rx="16" fill="#ffffff" stroke="#d9e7e1" stroke-width="6"/>
  <rect x="720" y="180" width="520" height="330" rx="16" fill="#ffffff" stroke="#d9e7e1" stroke-width="6"/>
  <g fill="#0f8f78">
    <rect x="238" y="280" width="74" height="156" rx="20"/>
    <rect x="352" y="238" width="74" height="198" rx="20"/>
    <rect x="466" y="306" width="74" height="130" rx="20"/>
  </g>
  <g fill="none" stroke="#78bf53" stroke-width="18" stroke-linecap="round">
    <path d="M812 395c65-95 118-142 164-142s77 39 122 142"/>
    <path d="M850 398h225"/>
  </g>
  <circle cx="1000" cy="278" r="42" fill="#f3a23a"/>
  <rect x="392" y="572" width="620" height="58" rx="29" fill="#0f8f78"/>
  <rect x="446" y="612" width="510" height="28" rx="14" fill="#78bf53"/>
</svg>
